# xmcd CD database file
#
# Track frame offsets:
#	150
#	28200
#	58650
#	86942
#	112967
#	129917
#	143642
#	175892
#	198542
#
# Disc length: 3023 seconds
#
# Revision: 0
# Processed by: cddbd v1.5.2PL0 Copyright (c) Steve Scherf et al.
# Submitted via: CDex 1.70beta2
#
DISCID=7d0bcd09
DTITLE=Roland Hanna - Last Concert
DYEAR=1900
DGENRE=Jazz
TTITLE0=Softly As In A Morning Sunrise
TTITLE1=Cosmic Sea
TTITLE2=Song Of The Bird
TTITLE3=By Myself
TTITLE4=This Is My Beloved
TTITLE5=Adagietto
TTITLE6=Rin
TTITLE7=Heartstrings
TTITLE8=Satin Doll
EXTD=
EXTT0=
EXTT1=
EXTT2=
EXTT3=
EXTT4=
EXTT5=
EXTT6=
EXTT7=
EXTT8=
PLAYORDER=
